nColumns=19
nRows=52
DataType=double
version=3
OpenSimVersion=4.4-2022-07-23-0e9fedc
endheader
time	ground_force_1_vx	ground_force_1_vy	ground_force_1_vz	ground_force_1_px	ground_force_1_py	ground_force_1_pz	ground_moment_1_mx	ground_moment_1_my	ground_moment_1_mz	ground_force_2_vx	ground_force_2_vy	ground_force_2_vz	ground_force_2_px	ground_force_2_py	ground_force_2_pz	ground_moment_2_mx	ground_moment_2_my	ground_moment_2_mz
0	-0.934146184	12.79202515	4.161166498	0.8125	0	0.2385	0.466146947	-0.87034227	5.189300351	-72.97363929	772.0882446	-76.73363353	0.8125	0	0.733	93.83355563	33.37068879	190.282533
0.01	-0.577525443	8.836222936	4.011125889	0.8125	0	0.2385	0.224989528	-0.498112992	2.537231316	-71.04364943	767.3325195	-79.28144177	0.8125	0	0.733	92.00878684	32.47564598	190.6967437
0.02	-0.249515508	5.360296115	3.913731145	0.8125	0	0.2385	0.01805414	-0.172333273	0.270576516	-68.49770127	760.4362739	-81.58902247	0.8125	0	0.733	89.84680461	31.44600804	189.4440942
0.03	-2.32E-18	3.86E-15	2.03E-16	0.8125	0	0.2385	-3.94E-18	-1.17E-18	-3.63E-17	-65.46157061	751.671693	-83.27831608	0.8125	0	0.733	87.4427709	30.28263366	186.5494454
0.04	-5.10E-22	8.44E-19	4.61E-20	0.8125	0	0.2385	-8.67E-22	-2.70E-22	-8.01E-21	-62.00974459	741.6151872	-84.09892206	0.8125	0	0.733	84.93238756	28.98267768	182.2394703
0.05	-1.11E-25	1.85E-22	9.87E-24	0.8125	0	0.2385	-1.90E-25	-6.22E-26	-1.76E-24	-58.30706574	731.0443602	-83.95541745	0.8125	0	0.733	82.46106054	27.56390601	176.9232572
0.06	-2.35E-29	4.05E-26	2.16E-27	0.8125	0	0.2385	-4.13E-29	-1.16E-29	-3.83E-28	-54.477824	720.7270412	-82.97889902	0.8125	0	0.733	80.15186581	26.07275357	171.0088261
0.07	-4.57E-33	8.86E-30	4.75E-31	0.8125	0	0.2385	-9.14E-33	-2.55E-33	-8.37E-32	-50.68084877	711.2626131	-81.40440011	0.8125	0	0.733	78.09206535	24.56695091	164.8453127
0.08	-1.14E-36	1.94E-33	1.06E-34	0.8125	0	0.2385	-2.00E-36	-6.05E-37	-1.83E-35	-47.07427193	703.1787859	-79.50031025	0.8125	0	0.733	76.34001781	23.10721613	158.7346745
0.09	-2.51E-40	4.26E-37	2.30E-38	0.8125	0	0.2385	-4.36E-40	-1.37E-40	-4.03E-39	-43.77225716	696.9080485	-77.48235409	0.8125	0	0.733	74.93865823	21.74549689	152.8731324
0.1	-5.22E-44	9.32E-41	4.91E-42	0.8125	0	0.2385	-9.45E-44	-2.68E-44	-8.78E-43	-40.882517	692.9126648	-75.49563318	0.8125	0	0.733	73.92191195	20.51372524	147.4518984
0.11	-1.23E-47	2.04E-44	1.09E-45	0.8125	0	0.2385	-2.08E-47	-6.41E-48	-1.93E-46	-38.40395284	691.5429924	-73.6411872	0.8125	0	0.733	73.3189611	19.42363851	142.5328876
0.12	-2.69E-51	4.47E-48	2.37E-49	0.8125	0	0.2385	-4.56E-51	-1.47E-51	-4.25E-50	-36.34837036	693.0980241	-71.97262969	0.8125	0	0.733	73.14579979	18.47257373	138.1748911
0.13	-5.91E-55	9.79E-52	5.38E-53	0.8125	0	0.2385	-9.89E-55	-2.88E-55	-9.29E-54	-34.64050831	697.6521813	-70.53370487	0.8125	0	0.733	73.39942794	17.64721296	134.3435733
0.14	-1.26E-58	2.14E-55	1.17E-56	0.8125	0	0.2385	-2.19E-58	-6.72E-59	-2.03E-57	-33.20151458	705.1330078	-69.34797061	0.8125	0	0.733	74.05397327	16.92178041	130.9739944
0.15	-2.84E-62	4.70E-59	2.50E-60	0.8125	0	0.2385	-4.82E-62	-1.42E-62	-4.42E-61	-31.89172096	715.2059063	-68.44500803	0.8125	0	0.733	75.05699802	16.26572619	127.9497246
0.16	-6.19E-66	1.03E-62	5.51E-64	0.8125	0	0.2385	-1.05E-65	-2.93E-66	-9.75E-65	-30.56378815	727.3076138	-67.84790181	0.8125	0	0.733	76.33337438	15.64972421	125.0938302
0.17	-1.48E-69	2.25E-66	1.23E-67	0.8125	0	0.2385	-2.29E-69	-7.34E-70	-2.13E-68	-29.07606084	740.6635335	-67.55248981	0.8125	0	0.733	77.79274422	15.04591012	122.2196072
0.18	-3.03E-73	4.94E-70	2.67E-71	0.8125	0	0.2385	-5.06E-73	-1.46E-73	-4.70E-72	-27.265645	754.3633913	-67.5146691	0.8125	0	0.733	79.33737389	14.43144915	119.1139348
0.19	-6.26E-77	1.08E-73	5.88E-75	0.8125	0	0.2385	-1.10E-76	-3.32E-77	-1.02E-75	-25.03019245	767.4565397	-67.65356229	0.8125	0	0.733	80.86885131	13.78524669	115.6162919
0.2	-3.18E-80	2.33E-77	1.26E-78	0.8125	0	0.2385	-1.44E-80	-1.19E-80	-2.12E-79	-22.23789647	778.9838489	-67.89636262	0.8125	0	0.733	82.29356874	13.09206013	111.552092
0.21	-8.96E-77	-1.68E-75	-4.01E-77	0.8125	0	0.2385	4.44E-77	-2.08E-77	6.34E-77	-18.83796868	788.1126598	-68.15973416	0.8125	0	0.733	83.52989109	12.34082789	106.8157198
0.22	-4.42E-73	-7.66E-72	-1.87E-73	0.8125	0	0.2385	2.06E-73	-8.73E-74	2.96E-73	-14.79439917	794.1356214	-68.37987766	0.8125	0	0.733	84.51217599	11.53514979	101.3606344
0.23	-1.81E-69	-3.49E-68	-8.47E-70	0.8125	0	0.2385	9.30E-70	-3.76E-70	1.33E-69	-10.15547009	796.5793323	-68.51023199	0.8125	0	0.733	85.19485	10.6878627	95.19494447
0.24	-8.38E-66	-1.60E-64	-3.88E-66	0.8125	0	0.2385	4.26E-66	-1.93E-66	6.02E-66	-5.011635956	795.2527635	-68.47234732	0.8125	0	0.733	85.56189075	9.810425058	88.40688253
0.25	-4.01E-62	-7.29E-61	-1.74E-62	0.8125	0	0.2385	1.96E-62	-8.58E-63	2.77E-62	0.49793707	790.3168227	-68.20722939	0.8125	0	0.733	85.63081593	8.915481282	81.11589231
0.26	-1.78E-58	-3.33E-57	-8.00E-59	0.8125	0	0.2385	8.88E-59	-4.08E-59	1.27E-58	6.18164606	782.2940609	-67.63939473	0.8125	0	0.733	85.45043229	8.015537083	73.51414538
0.27	-8.05E-55	-1.52E-53	-3.69E-55	0.8125	0	0.2385	4.08E-55	-1.68E-55	5.72E-55	11.86568209	771.9791996	-66.72971597	0.8125	0	0.733	85.09043643	7.120934633	65.80627471
0.28	-3.55E-51	-6.94E-50	-1.70E-51	0.8125	0	0.2385	1.85E-51	-8.77E-52	2.61E-51	17.34174021	760.3069476	-65.53243709	0.8125	0	0.733	84.62439499	6.242286445	58.21582958
0.29	-1.74E-47	-3.17E-46	-7.65E-48	0.8125	0	0.2385	8.49E-48	-3.89E-48	1.20E-47	22.47627768	748.2344957	-64.14439072	0.8125	0	0.733	84.12084353	5.389022066	50.91606562
0.3	-7.64E-44	-1.45E-42	-3.49E-44	0.8125	0	0.2385	3.84E-44	-1.79E-44	5.53E-44	27.12453675	736.6271636	-62.71798311	0.8125	0	0.733	83.63417988	4.568927063	44.04750385
0.31	-3.79E-40	-6.60E-39	-1.60E-40	0.8125	0	0.2385	1.77E-40	-8.47E-41	2.49E-40	31.18038305	726.1846492	-61.45852011	0.8125	0	0.733	83.19954138	3.787550611	37.73314081
0.32	-1.67E-36	-3.02E-35	-7.17E-37	0.8125	0	0.2385	8.04E-37	-3.50E-37	1.14E-36	34.53049369	717.4183002	-60.52382086	0.8125	0	0.733	82.83791506	3.051747689	32.05689625
0.33	-7.41E-33	-1.38E-31	-3.35E-33	0.8125	0	0.2385	3.67E-33	-1.73E-33	5.20E-33	37.09449993	710.6850053	-60.06307399	0.8125	0	0.733	82.55665658	2.371049414	27.0804488
0.34	-3.35E-29	-6.29E-28	-1.52E-29	0.8125	0	0.2385	1.68E-29	-8.09E-30	2.39E-29	38.85514567	706.1481495	-60.15660483	0.8125	0	0.733	82.35404951	1.747528603	22.81612235
0.35	-1.62E-25	-2.87E-24	-6.93E-26	0.8125	0	0.2385	7.80E-26	-3.47E-26	1.08E-25	39.82268508	703.8569051	-60.81867608	0.8125	0	0.733	82.21838934	1.178621413	19.25481246
0.36	-7.01E-22	-1.31E-20	-3.10E-22	0.8125	0	0.2385	3.49E-22	-1.54E-22	4.97E-22	40.09390288	703.6530762	-62.03285432	0.8125	0	0.733	82.12865173	0.65896204	16.3418811
0.37	-3.36E-18	-5.98E-17	-1.43E-18	0.8125	0	0.2385	1.60E-18	-6.84E-19	2.26E-18	39.82778509	705.2844812	-63.71259752	0.8125	0	0.733	82.06365133	0.178690685	13.99211909
0.38	-1.18E-14	-2.24E-13	-5.41E-15	0.8125	0	0.2385	6.01E-15	-2.64E-15	8.60E-15	39.28126949	708.3535744	-65.72620672	0.8125	0	0.733	82.00025091	-0.276462734	12.0996074
0.39	19.35161522	17.58413553	0.687596192	0.8125	0	0.2385	-2.927848267	4.287346516	2.529103513	38.72735152	712.294091	-67.88898156	0.8125	0	0.733	81.90507508	-0.722621482	10.53142183
0.4	24.54790976	40.37789471	-1.034746272	0.8125	0	0.2385	-6.095242279	5.526567417	9.719523245	38.45304517	716.3104897	-69.95884892	0.8125	0	0.733	81.72854982	-1.179976623	9.155457827
0.41	28.31217394	71.77706283	-3.010916041	0.8125	0	0.2385	-10.43210138	6.618808508	19.63018711	38.70216089	719.4382011	-71.66431931	0.8125	0	0.733	81.40654854	-1.665647314	7.856947445
0.42	28.80212534	111.5232408	-4.952712578	0.8125	0	0.2385	-15.9036652	7.220403927	32.20772346	39.60042172	720.5634135	-72.70220734	0.8125	0	0.733	80.85989155	-2.184582325	6.530475763
0.43	24.43529368	158.4367174	-6.407416358	0.8125	0	0.2385	-22.34092494	7.019281682	47.16268301	41.17747598	718.4035601	-72.79976628	0.8125	0	0.733	79.99253092	-2.725888638	5.097188656
0.44	15.44459225	211.1041149	-7.021386746	0.8125	0	0.2385	-29.51932055	5.911428035	64.09911253	43.31308669	711.6270432	-71.72632796	0.8125	0	0.733	78.69343487	-3.268272307	3.546573329
0.45	3.423541282	267.2236227	-6.441707705	0.8125	0	0.2385	-37.06033445	3.948583687	82.2206124	45.79876629	698.8254292	-69.33426662	0.8125	0	0.733	76.83254343	-3.785080214	1.90344613
0.46	-9.791544304	322.0316212	-3.828085669	0.8125	0	0.2385	-44.30795011	1.183960842	99.79806068	48.30375546	678.5861862	-65.64324623	0.8125	0	0.733	74.26597052	-4.237337598	0.232914178
0.47	-22.47266922	370.7326741	1.253033652	0.8125	0	0.2385	-50.65165617	-2.157384666	114.9882734	50.44361135	649.6871713	-60.75395845	0.8125	0	0.733	70.86359119	-4.573173264	-1.383327814
0.48	-33.51489545	411.9059026	7.945246613	0.8125	0	0.2385	-55.89914382	-5.698258076	127.1123879	51.78353855	611.5374777	-54.82850002	0.8125	0	0.733	66.545225	-4.739776113	-2.818430126
0.49	-42.61371182	446.7575625	15.54685865	0.8125	0	0.2385	-60.22924578	-9.123288476	136.4937518	51.882008	564.3017297	-48.16180711	0.8125	0	0.733	61.30814768	-4.690968071	-3.970911798
0.5	-49.70038167	477.8700399	23.34843863	0.8125	0	0.2385	-63.99966278	-12.21919209	143.9447403	50.42462051	508.9716531	-41.13159788	0.8125	0	0.733	55.2354878	-4.400971543	-4.759145196
0.51	-54.96851564	507.6554386	30.68649104	0.8125	0	0.2385	-67.55400275	-14.83145194	150.2662984	47.15636048	447.3426602	-34.09771977	0.8125	0	0.733	48.49698675	-3.870166054	-5.141588057
